<svg viewBox="0 0 500 550" version="1.1">
<text fill="navy" font-size="30">
<tspan x="50" y="50"> 3 </tspan>
<tspan x="100" y="50"> C </tspan>
<tspan x="150" y="50"> [ </tspan>
<tspan x="200" y="50"> Z </tspan>
<tspan x="250" y="50"> X </tspan>
<tspan x="300" y="50"> ) </tspan>
<tspan x="350" y="50"> &amp; </tspan>
<tspan x="400" y="50"> @ </tspan>

<tspan x="50" y="100"> > </tspan>
<tspan x="100" y="100"> ' </tspan>
<tspan x="150" y="100"> ! </tspan>
<tspan x="200" y="100"> [ </tspan>
<tspan x="250" y="100"> ) </tspan>
<tspan x="300" y="100"> E </tspan>
<tspan x="350" y="100"> K </tspan>
<tspan x="400" y="100"> 6 </tspan>

<tspan x="50" y="150"> E </tspan>
<tspan x="100" y="150"> I </tspan>
<tspan x="150" y="150"> 4 </tspan>
<tspan x="200" y="150"> N </tspan>
<tspan x="250" y="150"> ^ </tspan>
<tspan x="300" y="150"> &lt; </tspan>
<tspan x="350" y="150"> Z </tspan>
<tspan x="400" y="150"> 3 </tspan>

<tspan x="50" y="200"> # </tspan>
<tspan x="100" y="200"> &amp; </tspan>
<tspan x="150" y="200"> ? </tspan>
<tspan x="200" y="200"> G </tspan>
<tspan x="250" y="200"> R </tspan>
<tspan x="300" y="200"> 5 </tspan>
<tspan x="350" y="200"> F </tspan>
<tspan x="400" y="200"> 6 </tspan>

<tspan x="50" y="250"> J </tspan>
<tspan x="100" y="250"> T </tspan>
<tspan x="150" y="250"> T </tspan>
<tspan x="200" y="250"> . </tspan>
<tspan x="250" y="250"> J </tspan>
<tspan x="300" y="250"> ? </tspan>
<tspan x="350" y="250"> E </tspan>
<tspan x="400" y="250"> 0 </tspan>

<tspan x="50" y="300"> M </tspan>
<tspan x="100" y="300"> N </tspan>
<tspan x="150" y="300"> > </tspan>
<tspan x="200" y="300"> - </tspan>
<tspan x="250" y="300"> % </tspan>
<tspan x="300" y="300"> &lt; </tspan>
<tspan x="350" y="300"> W </tspan>
<tspan x="400" y="300"> ; </tspan>

<tspan x="50" y="350"> X </tspan>
<tspan x="100" y="350"> U </tspan>
<tspan x="150" y="350"> O </tspan>
<tspan x="200" y="350"> , </tspan>
<tspan x="250" y="350"> &lt; </tspan>
<tspan x="300" y="350"> H </tspan>
<tspan x="350" y="350"> 5 </tspan>
<tspan x="400" y="350"> 3 </tspan>

<tspan x="50" y="400"> * </tspan>
<tspan x="100" y="400"> E </tspan>
<tspan x="150" y="400"> L </tspan>
<tspan x="200" y="400"> 0 </tspan>
<tspan x="250" y="400"> O </tspan>
<tspan x="300" y="400"> [ </tspan>
<tspan x="350" y="400"> + </tspan>
<tspan x="400" y="400"> # </tspan>

<tspan x="50" y="450"> Z </tspan>
<tspan x="100" y="450"> / </tspan>
<tspan x="150" y="450"> A </tspan>
<tspan x="200" y="450"> U </tspan>
<tspan x="250" y="450"> V </tspan>
<tspan x="300" y="450"> 1 </tspan>
<tspan x="350" y="450"> &amp; </tspan>
<tspan x="400" y="450"> &amp; </tspan>

</text>
</svg>
